<?xml version="1.0" encoding="utf-8"?>
<!-- Generator: Adobe Illustrator 16.0.0, SVG Export Plug-In . SVG Version: 6.00 Build 0)  -->
<!DOCTYPE svg PUBLIC "-//W3C//DTD SVG 1.1//EN" "http://www.w3.org/Graphics/SVG/1.1/DTD/svg11.dtd">
<svg version="1.1" id="logo" xmlns="http://www.w3.org/2000/svg" xmlns:xlink="http://www.w3.org/1999/xlink" x="0px" y="0px"
	 width="130px" height="40px" viewBox="0 0 130 40" enable-background="new 0 0 130 40" xml:space="preserve">
<path fill="#F15C61" d="M68.465,10.053c0,1.439-1.163,2.6-2.604,2.6c-1.442,0-2.603-1.16-2.603-2.6c0-1.443,1.123-2.602,2.603-2.602
	C67.345,7.488,68.465,8.648,68.465,10.053z M57.734,15.297c0,0.24,0,0.643,0,0.643s-1.243-1.605-3.883-1.605
	c-4.365,0-7.769,3.324-7.769,7.928c0,4.568,3.362,7.928,7.769,7.928c2.682,0,3.883-1.639,3.883-1.639v0.682
	c0,0.318,0.24,0.557,0.561,0.557h3.242V14.734c0,0-2.963,0-3.242,0C57.975,14.734,57.734,15.018,57.734,15.297z M57.734,24.945
	c-0.603,0.881-1.803,1.643-3.243,1.643c-2.562,0-4.524-1.604-4.524-4.326c0-2.725,1.962-4.322,4.524-4.322
	c1.4,0,2.682,0.801,3.243,1.643V24.945z M63.939,14.734h3.843v15.055h-3.843V14.734z M121.354,14.334
	c-2.641,0-3.883,1.605-3.883,1.605V7.488h-3.844v22.301c0,0,2.963,0,3.244,0c0.32,0,0.561-0.279,0.561-0.557v-0.682l0,0
	c0,0,1.24,1.643,3.883,1.643c4.363,0,7.768-3.363,7.768-7.93C129.083,17.701,125.679,14.334,121.354,14.334z M120.714,26.547
	c-1.48,0-2.641-0.76-3.242-1.639v-5.371c0.602-0.797,1.883-1.637,3.242-1.637c2.562,0,4.525,1.602,4.525,4.324
	C125.239,24.945,123.276,26.547,120.714,26.547z M111.626,20.861v8.969h-3.844v-8.527c0-2.482-0.801-3.484-2.963-3.484
	c-1.16,0-2.361,0.602-3.123,1.482v10.492h-3.842V14.734h3.041c0.32,0,0.561,0.283,0.561,0.562v0.643
	c1.121-1.164,2.602-1.605,4.084-1.605c1.682,0,3.084,0.484,4.205,1.443C111.104,16.898,111.626,18.34,111.626,20.861z
	 M88.522,14.334c-2.641,0-3.883,1.605-3.883,1.605V7.488h-3.843v22.301c0,0,2.962,0,3.241,0c0.321,0,0.563-0.279,0.563-0.557v-0.682
	l0,0c0,0,1.239,1.643,3.882,1.643c4.363,0,7.768-3.363,7.768-7.93C96.29,17.701,92.888,14.334,88.522,14.334z M87.882,26.547
	c-1.479,0-2.64-0.76-3.242-1.639v-5.371c0.603-0.797,1.884-1.637,3.242-1.637c2.562,0,4.526,1.602,4.526,4.324
	C92.408,24.945,90.444,26.547,87.882,26.547z M77.472,14.334c1.162,0,1.762,0.201,1.762,0.201V18.1c0,0-3.203-1.086-5.203,1.201
	V29.83h-3.846V14.734c0,0,2.963,0,3.244,0c0.32,0,0.56,0.283,0.56,0.562v0.643C74.711,15.096,76.272,14.334,77.472,14.334z
	 M37.555,28.432c-0.2-0.48-0.4-1.004-0.602-1.443c-0.32-0.723-0.641-1.402-0.92-2.043l-0.041-0.037
	c-2.762-6.008-5.725-12.094-8.848-18.1l-0.121-0.24c-0.321-0.6-0.641-1.244-0.959-1.881c-0.4-0.721-0.801-1.484-1.442-2.203
	C23.341,0.881,21.5,0,19.537,0c-2,0-3.802,0.881-5.123,2.402c-0.601,0.723-1.042,1.48-1.44,2.203
	c-0.323,0.641-0.644,1.283-0.962,1.881l-0.121,0.242C8.809,12.734,5.805,18.82,3.043,24.826l-0.04,0.078
	c-0.28,0.643-0.602,1.32-0.922,2.043c-0.202,0.441-0.401,0.922-0.6,1.439C0.959,29.869,0.8,31.271,1,32.713
	c0.441,3.004,2.441,5.527,5.205,6.648C7.246,39.801,8.328,40,9.449,40c0.321,0,0.719-0.039,1.039-0.08
	c1.323-0.16,2.684-0.6,4.007-1.361c1.642-0.92,3.201-2.24,4.962-4.164c1.762,1.924,3.363,3.244,4.965,4.164
	c1.325,0.762,2.684,1.201,4.004,1.361c0.322,0.041,0.723,0.08,1.042,0.08c1.122,0,2.243-0.199,3.243-0.639
	c2.804-1.121,4.766-3.686,5.208-6.648C38.235,31.312,38.074,29.91,37.555,28.432z M19.497,30.512
	c-2.16-2.723-3.562-5.285-4.043-7.447c-0.199-0.922-0.24-1.723-0.119-2.443c0.081-0.639,0.319-1.201,0.638-1.682
	c0.763-1.078,2.043-1.762,3.527-1.762c1.481,0,2.802,0.641,3.522,1.762c0.321,0.48,0.562,1.043,0.641,1.682
	c0.119,0.723,0.08,1.562-0.119,2.443C23.062,25.186,21.658,27.748,19.497,30.512z M35.473,32.393
	c-0.281,2.082-1.682,3.885-3.645,4.686c-0.96,0.398-2.002,0.52-3.043,0.398c-1-0.119-2-0.439-3.043-1.039
	c-1.441-0.803-2.883-2.043-4.562-3.883c2.64-3.246,4.241-6.205,4.844-8.852c0.28-1.238,0.319-2.361,0.198-3.4
	c-0.158-1.002-0.519-1.924-1.08-2.725c-1.243-1.801-3.324-2.844-5.646-2.844c-2.32,0-4.402,1.084-5.645,2.844
	c-0.561,0.801-0.922,1.723-1.082,2.725c-0.161,1.039-0.119,2.203,0.202,3.4c0.599,2.646,2.242,5.646,4.843,8.889
	c-1.643,1.842-3.124,3.084-4.564,3.885c-1.042,0.602-2.042,0.924-3.043,1.041c-1.08,0.121-2.121-0.041-3.043-0.398
	c-1.962-0.801-3.364-2.602-3.643-4.684c-0.119-1.004-0.04-2.004,0.361-3.127c0.12-0.396,0.321-0.801,0.521-1.281
	c0.28-0.639,0.6-1.32,0.921-1.998l0.039-0.082c2.762-5.965,5.727-12.051,8.809-17.977l0.121-0.242c0.321-0.6,0.64-1.24,0.961-1.84
	c0.32-0.643,0.68-1.242,1.121-1.764c0.839-0.961,1.96-1.48,3.203-1.48c1.24,0,2.361,0.52,3.203,1.48
	c0.438,0.521,0.801,1.121,1.121,1.764c0.321,0.6,0.64,1.24,0.961,1.84l0.12,0.242c3.043,5.963,6.005,12.051,8.769,18.016v0.043
	c0.32,0.641,0.599,1.359,0.919,2.002c0.202,0.479,0.401,0.881,0.522,1.279C35.512,30.352,35.633,31.352,35.473,32.393z"/>
</svg>
