<?xml version="1.0" encoding="utf-8"?>
<!-- Generator: Adobe Illustrator 16.0.0, SVG Export Plug-In . SVG Version: 6.00 Build 0)  -->
<!DOCTYPE svg PUBLIC "-//W3C//DTD SVG 1.1//EN" "http://www.w3.org/Graphics/SVG/1.1/DTD/svg11.dtd">
<svg version="1.1" id="logo" xmlns="http://www.w3.org/2000/svg" xmlns:xlink="http://www.w3.org/1999/xlink" x="0px" y="0px"
	 width="160px" height="28px" viewBox="0 0 160 28" enable-background="new 0 0 160 28" xml:space="preserve">
<g>
	<path fill="#1E4079" d="M64.501,0.801c1.349-0.438,2.921,0.539,3.103,1.952c0.269,1.346-0.801,2.753-2.167,2.849
		c-1.273,0.168-2.55-0.821-2.685-2.101C62.565,2.327,63.352,1.102,64.501,0.801L64.501,0.801z"/>
	<path fill="#1E4079" d="M48.393,1.36c0.792,0.002,1.585-0.011,2.377,0c0.514,0.008,1.072,0.118,1.436,0.51
		c0.408,0.428,0.461,1.053,0.461,1.616c-0.007,2.798,0,5.595-0.004,8.392c0.565-0.033,1.332,0.113,1.677-0.463
		c0.97-1.481,1.923-2.973,2.891-4.455c1.601,0.001,3.204,0,4.804,0c-1.275,1.91-2.564,3.811-3.85,5.717
		c-0.235,0.366-0.515,0.694-0.809,1.013c0.586,0.579,0.896,1.344,1.284,2.051c1.012,2.033,2.262,3.932,3.416,5.884
		c-1.272-0.016-2.546,0.03-3.816-0.019c-0.747-0.016-1.45-0.43-1.807-1.091c-0.857-1.519-1.632-3.083-2.474-4.611
		c-0.255-0.469-0.876-0.319-1.312-0.378c-0.007,2.035,0.001,4.067-0.007,6.099c-1.421,0-2.841-0.001-4.265,0
		C48.389,14.87,48.395,8.114,48.393,1.36L48.393,1.36z"/>
	<path fill="#1E4079" d="M73.964,8.6c0.946-1.089,2.3-1.793,3.734-1.93c1.521-0.146,3.203,0.074,4.389,1.125
		c1.073,0.937,1.503,2.391,1.589,3.769c0.055,3.353-0.05,6.706,0.055,10.059c-0.836-0.015-1.671,0.039-2.498-0.031
		c-0.587-0.042-1.182-0.319-1.483-0.842c-0.356-0.635-0.29-1.393-0.292-2.099c-0.001-1.993,0.009-3.991-0.006-5.988
		c-0.016-0.755-0.21-1.718-1.029-1.986c-1.109-0.297-2.357,0.049-3.174,0.85c-0.812,0.797-1.157,1.962-1.19,3.074
		c0,2.341,0.004,4.683,0,7.022c-1.407,0.001-2.82,0.003-4.228,0c0-4.891,0-9.779,0-14.664c1.023,0.058,2.094-0.165,3.078,0.214
		C73.513,7.394,73.814,8.01,73.964,8.6L73.964,8.6z"/>
	<path fill="#22A2DC" d="M108.762,8.948c2.064-2.067,5.281-2.713,8.059-1.984c1.078,0.3,2.207,0.805,2.807,1.792
		c0.599,0.989,0.283,2.191,0.361,3.277c-0.836-0.018-1.674,0.034-2.508-0.021c-0.587-0.065-0.983-0.575-1.16-1.099
		c-0.128-0.399-0.572-0.533-0.933-0.641c-1.491-0.354-3.188,0.286-4.007,1.603c-0.797,1.259-0.883,2.944-0.273,4.301
		c0.606,1.333,2.062,2.109,3.49,2.147c1.717,0.089,3.312-0.854,4.457-2.067c0.584,0.976,1.178,1.946,1.757,2.924
		c-2.886,3.351-8.575,3.74-11.831,0.724C105.925,17.146,105.847,11.832,108.762,8.948L108.762,8.948z"/>
	<path fill="#22A2DC" d="M141.898,8.794c0.875-1.052,2.092-1.87,3.463-2.06c1.338-0.188,2.828,0.046,3.871,0.967
		c0.478,0.399,0.779,0.952,1.104,1.474c0.98-1.376,2.546-2.336,4.239-2.471c1.508-0.139,3.203,0.207,4.218,1.413
		c0.981,1.168,1.188,2.755,1.206,4.229c-0.006,3.092,0.005,6.188-0.007,9.28c-1.058-0.069-2.18,0.178-3.177-0.26
		c-0.768-0.367-0.902-1.312-0.89-2.071c0-2.263,0.01-4.517-0.001-6.773c-0.043-0.704-0.139-1.615-0.87-1.946
		c-0.938-0.382-2.038-0.015-2.727,0.687c-0.917,0.919-1.292,2.25-1.358,3.516c0.004,2.279-0.004,4.558,0.008,6.839
		c-1.358,0.016-2.717,0.002-4.074,0.006c0.001-2.877,0-5.756,0.001-8.63c-0.016-0.718-0.078-1.511-0.573-2.073
		c-0.486-0.565-1.344-0.595-2.01-0.382c-0.928,0.338-1.544,1.207-1.905,2.09c-0.437,1.03-0.509,2.168-0.513,3.276
		c0.004,1.905,0,3.813,0.004,5.72c-1.331,0-2.658,0-3.986,0c-0.002-4.877-0.002-9.748,0-14.622c1.037,0.05,2.168-0.186,3.123,0.326
		C141.592,7.617,141.752,8.25,141.898,8.794L141.898,8.794z"/>
	<path fill="#1E4079" d="M63.216,6.959c1.04,0.053,2.112-0.148,3.115,0.182c0.749,0.265,1.117,1.081,1.116,1.83
		c0.01,4.215,0,8.435,0.004,12.652c-1.396,0.001-2.793,0.001-4.189,0C63.28,16.732,63.229,11.849,63.216,6.959L63.216,6.959z"/>
	<path fill="#1E4079" d="M21.177,6.818c2.418-0.453,5.089,0.077,6.95,1.744c3.039,2.688,3.241,7.867,0.53,10.851
		c-2.934,3.266-8.745,3.262-11.633-0.061c-2.793-3.135-2.388-8.647,1.044-11.168C18.979,7.495,20.058,7.041,21.177,6.818
		L21.177,6.818z M21.846,10.391c-0.892,0.26-1.643,0.922-2.049,1.751c-0.901,1.868-0.555,4.554,1.343,5.676
		c1.485,0.867,3.621,0.445,4.562-1.026c1.024-1.608,0.96-3.904-0.261-5.392C24.581,10.38,23.107,10.02,21.846,10.391L21.846,10.391z
		"/>
	<path fill="#1E4079" d="M37.485,6.839c2.12-0.411,4.444-0.106,6.255,1.123c1.531,1.001,2.606,2.631,3.004,4.408
		c0.535,2.382,0.051,5.068-1.584,6.926c-2.87,3.344-8.685,3.42-11.646,0.16c-2.653-2.879-2.577-7.858,0.206-10.623
		C34.732,7.805,36.075,7.138,37.485,6.839L37.485,6.839z M38.282,10.38c-1.212,0.325-2.117,1.402-2.397,2.602
		c-0.431,1.703,0,3.815,1.578,4.792c1.273,0.771,3.051,0.631,4.144-0.395c0.925-0.854,1.259-2.169,1.195-3.389
		c-0.04-1.148-0.508-2.334-1.443-3.044C40.504,10.266,39.321,10.1,38.282,10.38L38.282,10.38z"/>
	<path fill="#22A2DC" d="M127.221,6.8c2.412-0.423,5.066,0.138,6.894,1.826c2.984,2.709,3.154,7.856,0.443,10.814
		c-2.925,3.218-8.655,3.226-11.562-0.021c-2.648-2.932-2.523-7.978,0.365-10.702C124.414,7.706,125.787,7.051,127.221,6.8
		L127.221,6.8z M127.879,10.358c-0.912,0.231-1.701,0.882-2.13,1.718c-0.846,1.681-0.675,3.976,0.732,5.311
		c1.284,1.231,3.55,1.152,4.769-0.133c0.795-0.825,1.113-2.006,1.073-3.132c-0.004-1.242-0.526-2.544-1.571-3.268
		C129.931,10.264,128.848,10.128,127.879,10.358L127.879,10.358z"/>
	<path fill="#1E4079" d="M89.027,7.106c2.158-0.86,4.875-0.699,6.662,0.891c0.252-0.492,0.679-0.904,1.239-1.008
		c0.843-0.142,1.701-0.044,2.552-0.072c0.004,4.498,0.002,8.99,0.002,13.486c0,1.644-0.494,3.338-1.636,4.553
		c-1.469,1.605-3.694,2.279-5.819,2.348c-1.979,0.033-3.973-0.442-5.705-1.401c0.332-0.815,0.592-1.671,1.013-2.449
		c0.21-0.405,0.688-0.615,1.136-0.535c0.703,0.126,1.367,0.42,2.082,0.511c1.25,0.191,2.668,0.163,3.723-0.626
		c0.796-0.607,1.043-1.672,0.986-2.629c-1.34,1.122-3.207,1.317-4.873,1.014c-1.671-0.308-3.184-1.352-4.075-2.796
		c-1.208-1.926-1.443-4.341-0.993-6.538C85.732,9.817,87.06,7.889,89.027,7.106L89.027,7.106z M91.134,10.529
		c-0.946,0.359-1.468,1.342-1.628,2.295c-0.226,1.264-0.064,2.686,0.724,3.74c1.016,1.38,3.399,1.452,4.425,0.046
		c0.7-0.986,0.734-2.268,0.649-3.432c-0.083-0.978-0.477-2.07-1.416-2.528C93.039,10.249,92.014,10.198,91.134,10.529L91.134,10.529
		z"/>
	<path fill="#1E4079" d="M0.003,3.493C-0.066,2.354,0.969,1.327,2.099,1.36c1.72,0,3.438-0.003,5.159,0
		c1.694,0.037,3.485,0.535,4.682,1.793c1.847,1.906,1.738,5.295-0.166,7.125c-0.225,0.207-0.461,0.398-0.693,0.595
		c0.98,0.494,1.886,1.203,2.375,2.21c0.884,1.809,0.781,4.109-0.348,5.789c-1.238,1.84-3.54,2.619-5.679,2.668
		c-2.473,0.007-4.951,0-7.424,0.004C0.003,15.525,0.005,9.51,0.003,3.493L0.003,3.493z M4.296,5.02
		C3.955,5.324,3.927,5.803,3.912,6.228c-0.002,1.09,0.004,2.177,0,3.269C4.973,9.49,6.033,9.509,7.093,9.49
		C7.728,9.475,8.368,9.2,8.756,8.689c0.766-1.046,0.722-2.768-0.369-3.573C7.641,4.57,6.669,4.721,5.803,4.698
		C5.297,4.711,4.692,4.63,4.296,5.02L4.296,5.02z M4.41,12.868c-0.417,0.266-0.487,0.794-0.498,1.248c-0.002,1.319,0,2.643,0,3.962
		c1.22-0.005,2.439,0.01,3.659-0.002c0.834-0.014,1.686-0.458,2.079-1.213c0.593-1.14,0.477-2.745-0.536-3.61
		c-0.831-0.7-1.978-0.614-2.989-0.618C5.555,12.66,4.917,12.538,4.41,12.868L4.41,12.868z"/>
	<path fill="#22A2DC" d="M102.896,16.962c1.41-0.437,3.013,0.683,3.087,2.156c0.147,1.295-0.896,2.572-2.202,2.661
		c-1.287,0.164-2.565-0.864-2.676-2.155C100.936,18.448,101.742,17.243,102.896,16.962L102.896,16.962z"/>
</g>
</svg>
