<?xml version="1.0" encoding="utf-8"?>
<!-- Generator: Adobe Illustrator 16.0.0, SVG Export Plug-In . SVG Version: 6.00 Build 0)  -->
<!DOCTYPE svg PUBLIC "-//W3C//DTD SVG 1.1//EN" "http://www.w3.org/Graphics/SVG/1.1/DTD/svg11.dtd">
<svg version="1.1" id="logo" xmlns="http://www.w3.org/2000/svg" xmlns:xlink="http://www.w3.org/1999/xlink" x="0px" y="0px"
	 width="170px" height="35px" viewBox="0 0 170 35" enable-background="new 0 0 170 35" xml:space="preserve">
<g>
	<polygon fill="#010101" points="44.413,10.445 44.413,18.262 53.452,18.262 53.452,10.445 55.89,10.445 55.89,29.129 
		53.452,29.129 53.452,20.369 44.413,20.369 44.413,29.129 42.001,29.129 42.001,10.445 	"/>
	<path fill="#010101" d="M71.482,22.309c0,4.961-3.438,7.125-6.681,7.125c-3.629,0-6.432-2.664-6.432-6.902
		c0-4.49,2.939-7.123,6.654-7.123C68.875,15.408,71.482,18.205,71.482,22.309 M60.838,22.447c0,2.938,1.69,5.154,4.072,5.154
		c2.331,0,4.077-2.189,4.077-5.211c0-2.273-1.138-5.154-4.018-5.154C62.086,17.236,60.838,19.896,60.838,22.447"/>
	<path fill="#010101" d="M73.907,19.342c0-1.387-0.027-2.521-0.111-3.633h2.135l0.11,2.164h0.084
		c0.747-1.275,1.996-2.469,4.212-2.469c1.83,0,3.215,1.111,3.799,2.689h0.055c0.416-0.748,0.945-1.33,1.498-1.746
		c0.802-0.609,1.689-0.943,2.964-0.943c1.773,0,4.41,1.166,4.41,5.822v7.902h-2.387v-7.596c0-2.58-0.941-4.133-2.91-4.133
		c-1.387,0-2.466,1.027-2.882,2.219c-0.109,0.332-0.193,0.777-0.193,1.219v8.291h-2.383v-8.041c0-2.135-0.943-3.688-2.803-3.688
		c-1.523,0-2.633,1.221-3.02,2.441c-0.139,0.361-0.195,0.775-0.195,1.189v8.098h-2.383V19.342z"/>
	<path fill="#010101" d="M97.8,22.736c0.057,3.365,2.207,4.75,4.697,4.75c1.779,0,2.855-0.311,3.785-0.707l0.424,1.783
		c-0.875,0.395-2.375,0.877-4.551,0.877c-4.213,0-6.73-2.799-6.73-6.93c0-4.125,2.432-7.379,6.42-7.379
		c4.467,0,5.654,3.93,5.654,6.447c0,0.508-0.057,0.906-0.086,1.158H97.8z M105.097,20.955c0.027-1.582-0.65-4.043-3.449-4.043
		c-2.518,0-3.621,2.318-3.818,4.043H105.097z"/>
	<path fill="#0C6CAD" d="M113.089,23.133l-1.979,5.996h-2.545l6.477-19.059h2.969l6.502,19.059h-2.631l-2.035-5.996H113.089z
		 M119.337,21.211l-1.865-5.486c-0.422-1.246-0.705-2.377-0.99-3.477h-0.055c-0.281,1.131-0.594,2.291-0.961,3.449l-1.867,5.514
		H119.337z"/>
	<path fill="#0C6CAD" d="M126.966,15.443l1.809,6.953c0.396,1.525,0.766,2.943,1.02,4.354h0.086
		c0.311-1.383,0.764-2.854,1.217-4.354l2.232-6.953h2.09l2.121,6.842c0.51,1.637,0.904,3.082,1.217,4.465h0.084
		c0.227-1.383,0.596-2.828,1.047-4.436l1.951-6.871h2.459l-4.41,13.686h-2.262l-2.092-6.533c-0.482-1.525-0.877-2.885-1.217-4.494
		h-0.057c-0.34,1.639-0.762,3.053-1.244,4.521l-2.207,6.506h-2.26l-4.127-13.686H126.966z"/>
	<path fill="#0C6CAD" d="M155.63,25.848c0,1.186,0.059,2.348,0.229,3.281h-2.264l-0.197-1.727h-0.086
		c-0.764,1.074-2.234,2.037-4.186,2.037c-2.77,0-4.186-1.953-4.186-3.93c0-3.311,2.941-5.121,8.229-5.09v-0.285
		c0-1.129-0.311-3.166-3.109-3.166c-1.271,0-2.602,0.396-3.564,1.02l-0.562-1.641c1.129-0.736,2.77-1.217,4.494-1.217
		c4.184,0,5.203,2.857,5.203,5.596V25.848z M153.228,22.145c-2.715-0.059-5.799,0.424-5.799,3.08c0,1.613,1.076,2.375,2.35,2.375
		c1.779,0,2.91-1.129,3.309-2.291c0.082-0.254,0.141-0.535,0.141-0.789V22.145z"/>
	<path fill="#0C6CAD" d="M159.667,15.443l2.996,8.086c0.311,0.904,0.65,1.98,0.877,2.799h0.059c0.252-0.818,0.533-1.865,0.875-2.857
		l2.715-8.027h2.629l-3.734,9.754c-1.779,4.693-2.996,6.723-4.691,8.193c-1.217,1.074-2.432,1.496-3.053,1.609l-0.623-2.09
		c0.623-0.199,1.441-0.596,2.176-1.219c0.68-0.537,1.527-1.498,2.094-2.77c0.111-0.256,0.197-0.451,0.197-0.592
		c0-0.145-0.055-0.34-0.17-0.65l-5.062-12.236H159.667z"/>
	<path fill="#FFFFFF" d="M12.253,2.061L4.95,11.326L4.909,23.172l6.745-0.789c0,0,1.28-0.213,1.364,0.998
		c0.096,1.354-1.109,1.348-1.109,1.348l-7,0.943l-0.014,2.529l14.999,2.707l-0.012-19.582L12.253,2.061z M15.564,19.273
		c-0.748,0.977-1.828,1.639-3.061,1.701c-0.065,0.006-0.132,0.006-0.197,0.006c-1.243,0-2.376-0.611-3.195-1.57
		c-0.823-0.959-1.356-2.271-1.435-3.736c-0.006-0.119-0.009-0.24-0.009-0.357c0-1.424,0.442-2.732,1.192-3.713
		c0.751-0.977,1.83-1.635,3.062-1.701c0.065-0.002,0.134-0.006,0.197-0.006c1.243,0,2.378,0.613,3.198,1.57
		c0.823,0.959,1.354,2.273,1.433,3.732c0.006,0.125,0.01,0.244,0.01,0.365C16.761,16.988,16.318,18.293,15.564,19.273"/>
	<polygon fill="#FFFFFF" points="26.41,13.299 22.896,13.463 22.872,18.252 26.417,17.975 	"/>
	<polygon fill="#FFFFFF" points="22.882,19.75 22.867,24.557 26.438,24.215 26.414,19.477 	"/>
	<path fill="#FFFFFF" d="M14.624,12.062c-0.683-0.797-1.566-1.258-2.504-1.258c-0.049,0-0.1,0-0.15,0.008
		c-0.932,0.051-1.764,0.539-2.387,1.346c-0.618,0.809-1.008,1.922-1.008,3.158c0,0.102,0.004,0.205,0.011,0.312
		c0.067,1.271,0.532,2.393,1.215,3.188c0.685,0.795,1.569,1.252,2.506,1.252c0.05,0,0.101,0,0.151-0.002
		c0.932-0.051,1.764-0.543,2.386-1.348c0.618-0.807,1.007-1.92,1.007-3.154c0-0.105-0.003-0.209-0.008-0.314
		C15.778,13.98,15.311,12.854,14.624,12.062 M9.632,15.602c-0.1-1.877,0.896-3.455,2.228-3.553
		c-0.784,0.523-1.298,1.896-1.212,3.484c0.082,1.605,0.75,2.93,1.601,3.352v0.018C10.902,18.971,9.732,17.498,9.632,15.602"/>
	<polygon fill="#FFFFFF" points="27.864,13.225 27.864,17.879 30.794,17.693 30.79,13.135 	"/>
	<polygon fill="#FFFFFF" points="27.864,24.072 30.788,23.793 30.788,19.168 27.864,19.379 	"/>
	<path fill="#0C6CAD" d="M26.182,0H9.944L0.36,11.311h3.377v12.047l-2.574,0.332c0,0-1.24,0.232-0.932,1.553
		c0.258,0.826,1.253,0.789,1.253,0.789l2.253-0.283v3.34l16.068,2.904l12.775-2.881l-0.023-17.779h3.758L26.182,0z M22.896,13.463
		l3.516-0.164l0.008,4.676l-3.547,0.277L22.896,13.463z M4.895,28.201l0.015-2.533l7-0.939c0,0,1.205,0.006,1.109-1.348
		c-0.084-1.211-1.364-0.998-1.364-0.998l-6.745,0.785l0.043-11.842l7.303-9.266l7.628,9.266l0.011,19.586L4.895,28.201z
		 M22.867,24.557l0.015-4.807l3.532-0.273l0.024,4.738L22.867,24.557z M30.788,23.793l-2.924,0.279v-4.693l2.924-0.211V23.793z
		 M27.865,17.879l-0.001-4.654l2.926-0.09l0.004,4.559L27.865,17.879z"/>
	<path fill="#0C6CAD" d="M15.318,11.467C14.496,10.51,13.363,9.9,12.12,9.9c-0.064,0-0.131,0-0.197,0.002
		c-1.232,0.066-2.312,0.725-3.061,1.701c-0.752,0.984-1.194,2.289-1.194,3.713c0,0.117,0.003,0.238,0.009,0.357
		c0.078,1.465,0.611,2.777,1.435,3.736c0.819,0.959,1.952,1.57,3.196,1.57c0.064,0,0.131,0,0.196-0.006
		c1.232-0.062,2.312-0.725,3.061-1.701c0.754-0.98,1.196-2.285,1.196-3.709c0-0.119-0.003-0.24-0.01-0.365
		C16.673,13.738,16.142,12.426,15.318,11.467 M14.844,18.719c-0.62,0.807-1.454,1.297-2.386,1.348
		c-0.051,0.002-0.1,0.002-0.15,0.002c-0.938,0-1.822-0.457-2.507-1.252c-0.683-0.795-1.147-1.916-1.214-3.188
		c-0.008-0.107-0.012-0.211-0.012-0.312c0-1.236,0.39-2.35,1.008-3.158c0.622-0.807,1.456-1.295,2.387-1.346
		c0.051-0.004,0.102-0.008,0.15-0.008c0.938,0,1.821,0.461,2.506,1.258c0.686,0.791,1.152,1.918,1.216,3.188
		c0.007,0.105,0.011,0.209,0.011,0.314C15.853,16.799,15.462,17.912,14.844,18.719"/>
	<path fill="#0C6CAD" d="M10.646,15.533c-0.082-1.588,0.43-2.961,1.214-3.484c-1.331,0.098-2.327,1.676-2.228,3.553
		c0.101,1.895,1.271,3.369,2.616,3.301v-0.018C11.399,18.463,10.729,17.139,10.646,15.533"/>
</g>
</svg>
