<?xml version="1.0" encoding="utf-8"?>
<!-- Generator: Adobe Illustrator 16.0.0, SVG Export Plug-In . SVG Version: 6.00 Build 0)  -->
<!DOCTYPE svg PUBLIC "-//W3C//DTD SVG 1.1//EN" "http://www.w3.org/Graphics/SVG/1.1/DTD/svg11.dtd">
<svg version="1.1" id="logo" xmlns="http://www.w3.org/2000/svg" xmlns:xlink="http://www.w3.org/1999/xlink" x="0px" y="0px"
	 width="175px" height="30px" viewBox="0 0 175 30" enable-background="new 0 0 175 30" xml:space="preserve">
<g>
	<path fill="#9D1F2E" d="M10.785,16.982c0,1.143,0.932,2.068,2.071,2.068c1.145,0,2.07-0.926,2.07-2.068s-0.926-2.068-2.07-2.068
		C11.717,14.914,10.785,15.84,10.785,16.982z"/>
	<path fill="#019D4E" d="M35.701,16.982c0,1.143,0.924,2.068,2.07,2.068c1.14,0,2.069-0.926,2.069-2.068s-0.93-2.068-2.069-2.068
		C36.625,14.914,35.701,15.84,35.701,16.982z"/>
	<g>
		<path fill="#231F20" d="M8.536,12.664c-1.151,1.152-1.79,2.688-1.79,4.318s0.639,3.166,1.79,4.32
			c1.156,1.154,2.688,1.789,4.32,1.789c3.371,0,6.109-2.74,6.109-6.109s-2.738-6.105-6.109-6.105
			C11.225,10.877,9.692,11.512,8.536,12.664z M9.859,19.979c-0.801-0.799-1.237-1.865-1.237-2.996s0.437-2.193,1.237-2.996
			c0.802-0.799,1.865-1.24,2.997-1.24c2.335,0,4.235,1.904,4.235,4.236c0,2.336-1.9,4.236-4.235,4.236
			C11.725,21.219,10.661,20.779,9.859,19.979z"/>
	</g>
	<g>
		<path fill="#231F20" d="M33.45,12.664c-1.153,1.152-1.788,2.688-1.788,4.318s0.635,3.166,1.788,4.32
			c1.157,1.154,2.688,1.789,4.321,1.789c3.367,0,6.108-2.74,6.108-6.109s-2.741-6.105-6.108-6.105
			C36.138,10.877,34.607,11.512,33.45,12.664z M34.775,19.979c-0.801-0.799-1.238-1.865-1.238-2.996s0.438-2.193,1.238-2.996
			c0.801-0.799,1.863-1.24,2.996-1.24c2.336,0,4.237,1.904,4.237,4.236c0,2.336-1.901,4.236-4.237,4.236
			C36.639,21.219,35.576,20.779,34.775,19.979z"/>
	</g>
	<g>
		<path fill="none" d="M37.771,6.766c-5.634,0-10.22,4.582-10.22,10.217c0,5.637,4.586,10.217,10.22,10.217
			c5.632,0,10.215-4.58,10.215-10.217C47.986,11.348,43.403,6.766,37.771,6.766z"/>
		<path fill="none" d="M12.856,6.766c-5.634,0-10.22,4.582-10.22,10.217c0,5.637,4.586,10.217,10.22,10.217
			s10.219-4.58,10.219-10.217C23.075,11.348,18.49,6.766,12.856,6.766z"/>
		<path fill="#231F20" d="M47.614,8.949c0.48-1.426,1.212-3.109,2.228-4.121h-8.348c-0.142-0.043-0.284-0.074-0.426-0.107
			C40.615,4.008,37.51,0,25.099,0C11.478,0,9.062,4.828,9.062,4.828H0.357C1.466,5.938,2.238,7.85,2.712,9.354
			c-1.605,2.127-2.566,4.764-2.566,7.629c0,7.01,5.704,12.715,12.711,12.715c3.886,0,7.368-1.758,9.701-4.512l2.886,4.039
			l2.492-4.199c2.331,2.85,5.874,4.672,9.836,4.672c7.008,0,12.714-5.705,12.714-12.715C50.485,13.939,49.406,11.141,47.614,8.949z
			 M12.856,27.199c-5.634,0-10.22-4.58-10.22-10.217c0-5.635,4.586-10.217,10.22-10.217s10.219,4.582,10.219,10.217
			C23.075,22.619,18.49,27.199,12.856,27.199z M37.771,27.199c-5.634,0-10.22-4.58-10.22-10.217c0-5.635,4.586-10.217,10.22-10.217
			c5.632,0,10.215,4.582,10.215,10.217C47.986,22.619,43.403,27.199,37.771,27.199z"/>
	</g>
	<path fill="#F5D180" d="M25.873,1.465c8.707,0,11.985,3.621,11.985,3.621S28.548,3.535,25.443,15
		C22.341,3.535,13.029,5.086,13.029,5.086s3.276-3.621,11.983-3.621H25.873z"/>
	<path fill="#010101" d="M59.885,7.59v3.258h3.543v1.881h-3.543v7.332c0,1.682,0.48,2.637,1.854,2.637
		c0.678,0,1.066-0.057,1.435-0.168l0.109,1.883c-0.478,0.168-1.234,0.334-2.187,0.334c-1.153,0-2.079-0.393-2.669-1.035
		c-0.676-0.762-0.957-1.969-0.957-3.57v-7.412h-2.106v-1.881h2.106v-2.5L59.885,7.59z"/>
	<path fill="#010101" d="M65.643,15.086c0-1.6-0.027-2.977-0.113-4.238h2.164l0.114,2.668h0.081
		c0.621-1.826,2.133-2.975,3.793-2.975c0.255,0,0.449,0.027,0.677,0.08v2.305c-0.286-0.025-0.54-0.057-0.876-0.057
		c-1.738,0-2.973,1.318-3.314,3.145c-0.053,0.365-0.086,0.76-0.086,1.18v7.246h-2.467L65.643,15.086z"/>
	<path fill="#010101" d="M75.499,8.348c-0.928,0-1.543-0.73-1.543-1.602c0-0.867,0.644-1.57,1.601-1.57
		c0.953,0,1.57,0.703,1.57,1.57c0,0.871-0.617,1.602-1.603,1.602H75.499z M74.322,24.439V10.848h2.47v13.592H74.322z"/>
	<path fill="#010101" d="M80.303,15.285c0-1.742-0.026-3.146-0.113-4.438h2.22l0.14,2.33h0.055c0.985-1.684,2.614-2.637,4.801-2.637
		c3.316,0,5.789,2.777,5.789,6.906c0,4.887-3.008,7.299-6.18,7.299c-1.822,0-3.37-0.785-4.184-2.133h-0.058V30h-2.47V15.285z
		 M82.772,18.906c0,0.336,0.03,0.703,0.113,1.012c0.421,1.711,1.936,2.893,3.679,2.893c2.613,0,4.129-2.135,4.129-5.252
		c0-2.723-1.405-5.055-4.015-5.055c-1.689,0-3.285,1.182-3.766,3.031c-0.055,0.338-0.141,0.705-0.141,1.012V18.906z"/>
	<path fill="#4B813E" d="M105.268,21.18c0,1.182,0.055,2.334,0.196,3.26h-2.219l-0.224-1.713h-0.086
		c-0.73,1.066-2.219,2.02-4.155,2.02c-2.751,0-4.157-1.936-4.157-3.9c0-3.287,2.922-5.084,8.172-5.057v-0.281
		c0-1.123-0.309-3.172-3.09-3.143c-1.288,0-2.608,0.363-3.566,1.01l-0.562-1.658c1.125-0.701,2.781-1.176,4.495-1.176
		c4.185,0,5.196,2.834,5.196,5.557V21.18z M102.854,17.502c-2.701-0.055-5.758,0.42-5.758,3.062c0,1.629,1.066,2.357,2.3,2.357
		c1.797,0,2.949-1.121,3.345-2.273c0.081-0.254,0.113-0.535,0.113-0.787V17.502z"/>
	<path fill="#4B813E" d="M120.373,4.5v16.43c0,1.207,0.027,2.584,0.115,3.51h-2.221l-0.113-2.357H118.1
		c-0.757,1.518-2.387,2.664-4.604,2.664c-3.285,0-5.841-2.777-5.841-6.906c-0.027-4.551,2.809-7.299,6.095-7.299
		c2.104,0,3.508,0.979,4.098,2.045h0.059V4.5H120.373z M117.905,16.379c0-0.336-0.032-0.729-0.113-1.066
		c-0.367-1.545-1.716-2.836-3.567-2.836c-2.554,0-4.07,2.246-4.07,5.223c0,2.779,1.377,5.055,4.016,5.055
		c1.657,0,3.173-1.125,3.622-2.947c0.081-0.336,0.113-0.676,0.113-1.068V16.379z"/>
	<path fill="#4B813E" d="M124.812,10.848l2.668,7.609c0.45,1.266,0.816,2.389,1.099,3.512h0.082c0.309-1.123,0.701-2.246,1.15-3.512
		l2.641-7.609h2.583l-5.335,13.592h-2.36l-5.168-13.592H124.812z"/>
	<path fill="#4B813E" d="M137.955,8.348c-0.926,0-1.546-0.73-1.546-1.602c0-0.867,0.649-1.57,1.601-1.57
		c0.959,0,1.575,0.703,1.575,1.57c0,0.871-0.616,1.602-1.603,1.602H137.955z M136.776,24.439V10.848h2.469v13.592H136.776z"/>
	<path fill="#4B813E" d="M142.421,21.938c0.759,0.455,2.052,0.959,3.285,0.959c1.77,0,2.614-0.873,2.614-2.025
		c0-1.178-0.704-1.822-2.5-2.498c-2.474-0.9-3.626-2.219-3.626-3.85c0-2.188,1.797-3.982,4.691-3.982
		c1.375,0,2.582,0.361,3.312,0.84l-0.59,1.77c-0.531-0.311-1.516-0.785-2.78-0.785c-1.458,0-2.248,0.84-2.248,1.852
		c0,1.15,0.79,1.656,2.557,2.33c2.331,0.871,3.565,2.051,3.565,4.102c0,2.414-1.878,4.098-5.056,4.098
		c-1.487,0-2.861-0.393-3.815-0.953L142.421,21.938z"/>
	<path fill="#4B813E" d="M158.82,24.746c-3.653,0-6.518-2.695-6.518-6.99c0-4.551,3.007-7.215,6.739-7.215
		c3.907,0,6.544,2.834,6.544,6.961c0,5.057-3.509,7.244-6.738,7.244H158.82z M158.905,22.896c2.358,0,4.128-2.221,4.128-5.311
		c0-2.301-1.154-5.195-4.072-5.195c-2.895,0-4.156,2.695-4.156,5.281c0,2.977,1.684,5.225,4.073,5.225H158.905z"/>
	<path fill="#4B813E" d="M168.144,15.086c0-1.6-0.025-2.977-0.112-4.238h2.164l0.108,2.668h0.087
		c0.616-1.826,2.132-2.975,3.789-2.975c0.253,0,0.448,0.027,0.675,0.08v2.305c-0.282-0.025-0.535-0.057-0.871-0.057
		c-1.741,0-2.977,1.318-3.312,3.145c-0.059,0.365-0.086,0.76-0.086,1.18v7.246h-2.468L168.144,15.086z"/>
</g>
</svg>
